HIERARCHY
ROOT hip
{
	OFFSET 0.000000 0.000000 0.000000 
	CHANNELS 6 Xposition Yposition Zposition Xrotation Zrotation Yrotation
	JOINT abdomen
	{
		OFFSET 0.000000 3.402643 0.000000 
		CHANNELS 3 Xrotation Zrotation Yrotation
		JOINT chest
		{
			OFFSET 0.000000 8.438565 -0.680529 
			CHANNELS 3 Xrotation Zrotation Yrotation
			JOINT neck
			{
				OFFSET 0.000000 10.207942 -0.272212 
				CHANNELS 3 Xrotation Zrotation Yrotation
				JOINT head
				{
					OFFSET 0.000000 3.130431 0.000000 
					CHANNELS 3 Xrotation Zrotation Yrotation
					End Site
					{
						OFFSET 0.000000 3.130435 0.000000 
					}
				}
			}
			JOINT lCollar
			{
				OFFSET 3.470700 6.669187 -0.816635 
				CHANNELS 3 Yrotation Zrotation Xrotation
				JOINT lShldr
				{
					OFFSET 3.198488 0.000000 0.000000 
					CHANNELS 3 Zrotation Yrotation Xrotation
					JOINT lForeArm
					{
						OFFSET 10.139888 0.000000 0.000000 
						CHANNELS 3 Yrotation Zrotation Xrotation
						JOINT lHand
						{
							OFFSET 8.370511 0.000000 0.000000 
							CHANNELS 3 Zrotation Yrotation Xrotation
							End Site
							{
								OFFSET 4.083176 0.000000 0.000000 
							}
						}
					}
				}
			}
			JOINT rCollar
			{
				OFFSET -3.470700 6.669187 -0.816635 
				CHANNELS 3 Yrotation Zrotation Xrotation
				JOINT rShldr
				{
					OFFSET -3.198488 0.000000 0.000000 
					CHANNELS 3 Zrotation Yrotation Xrotation
					JOINT rForeArm
					{
						OFFSET -10.139888 0.000000 0.000000 
						CHANNELS 3 Yrotation Zrotation Xrotation
						JOINT rHand
						{
							OFFSET -8.370511 0.000000 0.000000 
							CHANNELS 3 Zrotation Yrotation Xrotation
							End Site
							{
								OFFSET -4.083176 0.000000 0.000000 
							}
						}
					}
				}
			}
		}
	}
	JOINT lThigh
	{
		OFFSET 5.308129 -1.633274 1.361059 
		CHANNELS 3 Xrotation Zrotation Yrotation
		JOINT lShin
		{
			OFFSET -2.041588 -20.007561 0.000000 
			CHANNELS 3 Xrotation Zrotation Yrotation
			JOINT lFoot
			{
				OFFSET 0.000000 -19.190928 -1.224953 
				CHANNELS 3 Xrotation Yrotation Zrotation
				End Site
				{
					OFFSET 0.000000 -2.449906 4.627600 
				}
			}
		}
	}
	JOINT rThigh
	{
		OFFSET -5.308129 -1.633274 1.361059 
		CHANNELS 3 Xrotation Zrotation Yrotation
		JOINT rShin
		{
			OFFSET 2.041588 -20.007561 0.000000 
			CHANNELS 3 Xrotation Zrotation Yrotation
			JOINT rFoot
			{
				OFFSET 0.000000 -19.190928 -1.224953 
				CHANNELS 3 Xrotation Yrotation Zrotation
				End Site
				{
					OFFSET 0.000000 -2.449906 4.627600 
				}
			}
		}
	}
}
MOTION
Frames: 18
Frame Time: 0.033333
-13.934910 48.860901 3.883011 -5.683439 0.274868 -13.935665 0.000000 0.000000 0.000000 3.153623 1.470741 4.151778 9.811665 6.244575 2.397346 16.005981 -3.417289 1.144039 -5.545359 3.259897 3.719922 -13.764388 -71.826767 -14.951861 -90.371132 6.828342 11.434725 47.509548 4.994447 -2.816845 13.591683 11.685405 2.330970 -19.398119 65.047691 -26.414320 85.145729 -8.281825 7.450542 -57.534618 -8.322536 -0.869768 6.693909 4.470016 6.566864 11.325737 -1.689898 20.000366 -9.535740 0.673238 -8.359295 1.716696 -11.000565 -7.793211 14.573358 0.934811 -4.372170 -8.864149 -0.667649 8.475856 
-13.945606 48.846336 3.797265 -5.721926 0.360713 -13.584202 0.000000 0.000000 0.000000 3.332623 1.081663 3.750806 9.041687 5.387484 1.961915 16.483557 -3.446754 0.988067 -8.364607 3.917003 4.060390 -16.568254 -68.815582 -13.547487 -92.415604 6.967689 12.325287 47.420563 5.492833 -2.621701 13.925583 12.050431 2.446685 -18.089336 64.018517 -23.766123 86.525238 -8.880863 7.612898 -58.456406 -8.391838 -0.793938 6.412657 4.412713 6.321090 11.628346 -1.514150 19.892179 -9.519530 0.703161 -8.452478 1.551145 -11.051033 -7.861597 14.953944 0.964059 -4.633528 -9.004197 -0.659723 8.471940 
-13.962329 48.871410 3.709374 -5.389275 0.323033 -13.369309 0.000000 0.000000 0.000000 3.254056 0.506841 3.545129 8.772004 5.046339 1.804511 15.214161 -2.948951 0.772472 -8.123818 1.233577 3.694537 -18.389353 -69.946045 -8.382441 -94.113419 8.704856 16.843704 48.928143 3.211367 -3.570887 14.812729 14.018137 2.144957 -17.287321 62.205212 -20.809645 89.879265 -10.462238 12.517229 -58.964607 -7.884222 -1.050149 6.059943 4.558457 6.250516 11.442245 -1.455329 19.721849 -9.298003 0.683603 -8.424392 1.394428 -10.872840 -7.773512 14.497240 1.052233 -4.899260 -8.694468 -0.655346 8.370222 
-13.993271 48.904041 3.618775 -4.999610 0.247145 -13.252040 0.000000 0.000000 0.000000 2.854694 0.234020 3.154351 8.852002 3.942433 2.193063 15.136229 -1.962665 0.869634 -7.607755 4.183560 3.554399 -29.681581 -70.728996 -0.901490 -95.131721 8.788267 18.616415 48.423672 1.260092 -4.420447 16.507185 15.908706 1.319842 -14.723675 60.260014 -17.099487 92.963272 -11.462943 15.024117 -58.902199 -7.761027 -1.110443 5.691428 4.755029 6.244369 11.168552 -1.416107 19.661650 -9.047258 0.663184 -8.385286 1.238238 -10.547832 -7.506418 13.868057 1.031902 -5.331736 -8.265182 -0.654365 8.328780 
-14.032448 48.914310 3.550845 -4.924121 0.009504 -13.300781 0.000000 0.000000 0.000000 2.703127 -0.341121 3.603568 8.285104 4.136298 2.624454 17.704645 -2.724164 1.036307 -8.974226 2.018702 3.195573 -29.214962 -70.801804 1.435142 -93.964615 9.315817 19.292604 46.074196 1.606346 -4.230788 17.782534 18.779108 0.764836 -12.975600 57.917088 -14.877144 94.644562 -11.685198 14.067771 -59.060638 -7.936026 -1.009678 5.531286 5.074580 6.424055 11.337004 -1.453282 19.551649 -9.069221 0.639797 -8.407589 1.298298 -10.253766 -7.435049 13.548182 1.149612 -5.432787 -8.062697 -0.590212 8.149975 
-14.007034 48.914417 3.515539 -5.056459 -0.133057 -13.291069 0.000000 0.000000 0.000000 2.672705 -0.769736 3.857729 7.839985 4.232432 3.016179 19.723530 -3.485598 1.173863 -8.464604 1.545853 3.082946 -31.790493 -71.292831 6.430916 -91.679642 9.619063 19.419270 45.593021 2.776608 -3.740605 17.746412 21.029982 0.564649 -10.827526 57.005901 -11.658465 93.959435 -11.647876 12.724961 -59.225014 -7.997253 -0.964481 5.530756 5.141408 6.461439 11.569534 -1.406760 19.514425 -9.127535 0.673615 -8.403813 1.493304 -10.222144 -7.525747 13.406775 1.248309 -5.312926 -7.954497 -0.580233 8.109258 
-14.000802 48.909866 3.466490 -4.848812 -0.228180 -13.203252 0.000000 0.000000 0.000000 2.314915 -0.935696 3.555010 7.439798 3.860763 3.308406 20.397507 -4.012158 1.575928 -8.887419 1.247525 2.712307 -30.039339 -68.890327 6.656348 -90.471375 8.909272 15.974159 46.005417 2.597692 -3.821141 18.130613 21.227915 0.117943 -9.118007 56.029163 -7.375129 92.995766 -11.576018 10.125102 -59.075958 -8.996947 -0.420568 5.048243 5.312375 6.441937 11.957071 -1.356271 19.625456 -9.178329 0.681857 -8.487174 1.287396 -10.023319 -7.367334 13.339093 1.248405 -5.599204 -7.850027 -0.580206 8.128389 
-13.981860 48.928444 3.433789 -4.564272 -0.066507 -13.369154 0.000000 0.000000 0.000000 2.114752 -1.101717 3.272006 6.641405 3.021610 3.530779 20.584213 -3.221411 1.594220 -8.934246 0.013111 2.402174 -27.406015 -67.057854 6.591964 -90.906685 9.122072 14.793457 47.447807 4.713007 -2.938418 18.039190 18.881321 0.232939 -7.334699 56.591213 -4.793847 92.965851 -11.684646 9.035100 -59.304749 -9.731824 -0.000117 4.898658 5.182524 6.381859 11.546483 -1.414562 19.934605 -8.935057 0.662647 -8.393834 0.955992 -10.132614 -7.339246 13.154516 1.275722 -5.468925 -7.687802 -0.546266 8.065264 
-13.959198 48.937317 3.426251 -4.510158 -0.208851 -13.564574 0.000000 0.000000 0.000000 2.217274 -1.169908 3.320816 6.014919 2.671260 3.333738 20.927811 -2.401849 1.162726 -8.843529 -0.288336 2.479942 -24.428688 -66.315094 5.772219 -93.816124 10.016134 14.619348 49.093403 4.754676 -2.908502 17.995159 17.692909 0.525094 -7.512118 57.000736 -4.242307 94.627754 -12.675863 13.083698 -60.111340 -9.780491 0.086322 4.860669 5.261657 6.430789 11.606247 -1.395712 20.118769 -8.957045 0.669150 -8.391179 1.053937 -9.988136 -7.231459 12.782160 1.248403 -5.432116 -7.451449 -0.543765 8.071774 
-13.922667 48.931213 3.456430 -4.585275 -0.379525 -13.691748 0.000000 0.000000 0.000000 2.073894 -1.140144 3.740853 6.324117 2.408976 2.922676 21.122421 -1.904269 0.312652 -8.643236 -0.644151 2.307501 -19.922909 -66.085083 5.897259 -95.700592 11.270776 16.482147 53.990574 2.908802 -3.740798 17.259830 17.273319 0.612950 -7.816007 57.432911 -2.718921 95.788841 -13.807380 17.230175 -62.471745 -8.905416 -0.254306 4.899326 5.329959 6.476941 11.880776 -1.337773 20.109768 -9.166087 0.694140 -8.448839 1.267656 -9.924382 -7.250559 12.627138 1.305156 -5.131881 -7.429141 -0.553365 8.034854 
-13.875839 48.936222 3.481213 -4.761104 -0.218182 -13.740356 0.000000 0.000000 0.000000 1.711917 -1.383480 3.916994 7.435358 1.990506 2.355147 21.062578 -1.542949 -0.293126 -8.329271 -0.449300 2.000231 -15.198146 -65.656952 4.841422 -94.947205 11.304883 14.092369 57.274231 2.657025 -3.887830 17.036930 16.252895 0.504213 -7.402763 57.362682 -0.998167 95.004723 -13.876126 16.729815 -64.571983 -8.904561 -0.121429 5.291663 5.068116 6.389239 11.491200 -1.416295 20.044983 -9.103523 0.678728 -8.293097 1.355554 -10.209049 -7.452679 12.728833 1.325428 -5.017639 -7.460756 -0.546014 8.081739 
-13.868677 48.939922 3.512953 -4.985072 0.018981 -13.632811 0.000000 0.000000 0.000000 1.169357 -1.929256 3.839987 9.499050 1.600594 1.993047 19.784241 0.097652 -0.537109 -8.247584 0.089818 1.536686 -12.615664 -65.002449 4.452015 -92.785072 10.346895 9.162503 58.297886 4.329989 -2.990822 17.425226 16.150368 0.056413 -8.775929 56.503967 -0.454935 92.857780 -13.000170 11.931205 -65.194542 -9.786388 0.473395 5.759061 4.783484 6.324903 10.990909 -1.512612 19.809170 -8.997695 0.637717 -8.116485 1.472570 -10.520955 -7.648396 12.975853 1.286912 -4.940634 -7.606834 -0.550940 8.136316 
-13.881736 48.955067 3.536001 -5.436286 0.152071 -13.281280 0.000000 0.000000 0.000000 0.922654 -2.602429 3.548356 12.494751 1.503275 1.660866 17.139807 1.582008 -0.312381 -8.494032 0.247686 1.284584 -11.029463 -64.651985 3.967302 -91.979797 9.717943 5.661848 58.533173 5.123030 -2.556237 17.457157 16.221718 -0.127208 -10.774241 55.728828 -0.923665 92.392357 -12.544161 7.885152 -65.093697 -10.298689 0.802622 6.313379 4.655175 6.393328 10.492652 -1.600225 19.662792 -8.656629 0.607505 -7.983359 2.028418 -10.597271 -7.659022 12.885098 1.003170 -5.226102 -7.634627 -0.555799 8.359614 
-13.934288 48.947426 3.496448 -5.629574 0.152535 -12.519565 0.000000 0.000000 0.000000 1.228178 -3.198177 3.188437 13.936455 1.405926 1.231057 18.112249 2.499998 -0.068294 -8.763134 0.012076 1.505663 -8.563363 -65.494118 0.318897 -93.122833 9.913869 7.561995 58.289448 4.106575 -3.129725 16.196733 15.189825 0.464990 -12.686565 56.344124 -4.258913 93.120102 -12.767358 10.865808 -65.122543 -9.846748 0.498865 6.287282 4.950305 6.617492 10.757078 -1.796099 18.519218 -8.776440 0.604759 -7.836753 2.234891 -10.426754 -7.688652 13.103024 0.915882 -6.121793 -7.731971 -0.591663 8.452635 
-13.934882 48.895058 3.369940 -6.160919 0.181641 -11.777377 0.000000 0.000000 0.000000 2.201384 -3.714739 3.248656 14.321357 1.328043 0.635048 20.886150 2.324186 -0.302881 -8.926226 -0.905097 2.276871 -5.084079 -67.259727 -5.911351 -92.265640 9.727547 10.943120 59.118641 2.168839 -4.174852 15.323855 14.620722 1.600881 -15.768614 56.188435 -9.090170 92.654930 -12.470757 13.325250 -65.867661 -8.591413 -0.220863 5.993034 5.046970 6.616777 11.851999 -1.738395 17.779854 -9.074484 0.631519 -7.905848 2.352149 -10.533144 -7.918295 14.075738 0.895672 -6.389811 -8.201613 -0.602838 8.533559 
-13.918169 48.806446 3.157664 -6.714910 -0.162675 -11.513735 0.000000 0.000000 0.000000 3.258376 -3.674586 3.552020 14.340057 0.947164 0.840052 21.626747 2.236203 -0.605770 -9.033683 -2.810950 3.040507 -2.383306 -67.765656 -9.457368 -90.227608 8.704855 8.058205 56.835857 3.963271 -3.203791 14.676193 14.142779 2.709513 -18.060541 56.449974 -12.246099 90.510437 -11.338846 8.710384 -64.068192 -8.703733 -0.277545 5.335661 5.513220 6.843989 13.908445 -1.690603 17.026129 -9.835072 0.708300 -8.111896 2.186549 -10.380289 -7.920475 15.256127 0.944122 -6.328057 -8.586674 -0.669881 8.511389 
-13.873127 48.718613 2.966075 -6.757478 -0.468375 -11.816883 0.000000 0.000000 0.000000 3.692171 -3.850352 3.474045 13.830842 1.318172 0.967215 20.331844 0.546875 -0.019530 -9.120211 -3.097235 3.388185 -3.620372 -67.183876 -9.016625 -88.978409 7.680501 3.847874 55.729839 5.053155 -2.644027 15.707717 14.764660 2.933648 -18.775974 56.010700 -11.953496 89.671112 -10.783507 4.263610 -63.027653 -9.470523 0.128214 4.488782 5.915147 7.061347 15.677471 -1.718666 16.446449 -10.662437 0.789863 -8.241476 1.444361 -10.281525 -7.736843 16.308750 1.021943 -6.053052 -8.844806 -0.684290 8.424666 
-13.798454 48.630348 2.804070 -6.108707 -0.601011 -12.344496 0.000000 0.000000 0.000000 3.790169 -3.613533 4.158127 12.560382 0.683261 1.787332 18.573713 1.865127 -0.615544 -8.561078 -4.076270 3.425518 -3.187297 -67.616600 -9.473383 -89.939087 8.392401 7.079611 55.590466 4.157713 -3.126383 16.185169 13.243256 3.204725 -16.990721 56.191525 -11.867698 90.743515 -11.197174 8.287469 -63.981510 -9.537608 0.228425 3.090959 6.253201 7.244207 17.257654 -1.916472 16.359810 -11.442843 0.847991 -8.283463 0.008988 -10.538754 -7.909030 17.393341 1.607694 -5.072086 -9.193376 -0.646798 8.019600 
